<svg xmlns="http://www.w3.org/2000/svg" viewBox="0 0 1000 350" fill="none">
  <defs>
    <linearGradient id="bg4" x1="0%" y1="0%" x2="100%" y2="100%">
      <stop offset="0%" style="stop-color:#0a0a0f;stop-opacity:1"/>
      <stop offset="100%" style="stop-color:#12091e;stop-opacity:1"/>
    </linearGradient>
    <filter id="glow4">
      <feGaussianBlur stdDeviation="2" result="coloredBlur"/>
      <feMerge><feMergeNode in="coloredBlur"/><feMergeNode in="SourceGraphic"/></feMerge>
    </filter>
    <marker id="a1" markerWidth="8" markerHeight="6" refX="8" refY="3" orient="auto"><polygon points="0 0, 8 3, 0 6" fill="#ff0040"/></marker>
    <marker id="a2" markerWidth="8" markerHeight="6" refX="8" refY="3" orient="auto"><polygon points="0 0, 8 3, 0 6" fill="#00ffcc"/></marker>
  </defs>

  <rect width="1000" height="350" fill="url(#bg4)"/>

  <text x="500" y="35" text-anchor="middle" font-family="Consolas, monospace" font-size="18" font-weight="bold" fill="#ff0040" filter="url(#glow4)">MARK-OF-THE-WEB (MOTW) BYPASS</text>

  <!-- Download path with MOTW -->
  <text x="500" y="70" text-anchor="middle" font-family="Consolas, monospace" font-size="12" fill="#8892b0">Without Container (BLOCKED)</text>

  <!-- File download blocked -->
  <g transform="translate(150, 120)">
    <rect x="-60" y="-25" width="120" height="50" rx="6" fill="#1a1a2e" stroke="#ff0040" stroke-width="1.5"/>
    <text x="0" y="5" text-anchor="middle" font-family="Consolas, monospace" font-size="11" fill="#ff0040">payload.exe</text>
  </g>
  <line x1="210" y1="120" x2="310" y2="120" stroke="#ff0040" stroke-width="1.5" marker-end="url(#a1)"/>
  <g transform="translate(380, 120)">
    <rect x="-60" y="-25" width="120" height="50" rx="6" fill="#1a1a2e" stroke="#ffa500" stroke-width="1.5"/>
    <text x="0" y="-4" text-anchor="middle" font-family="Consolas, monospace" font-size="10" fill="#ffa500">MOTW Tagged</text>
    <text x="0" y="12" text-anchor="middle" font-family="Consolas, monospace" font-size="9" fill="#8892b0">Zone.Identifier</text>
  </g>
  <line x1="440" y1="120" x2="540" y2="120" stroke="#ffa500" stroke-width="1.5" marker-end="url(#a1)"/>
  <g transform="translate(620, 120)">
    <rect x="-70" y="-25" width="140" height="50" rx="6" fill="#1a1a2e" stroke="#ff0040" stroke-width="2"/>
    <text x="0" y="-4" text-anchor="middle" font-family="Consolas, monospace" font-size="11" fill="#ff0040">SmartScreen</text>
    <text x="0" y="12" text-anchor="middle" font-family="Consolas, monospace" font-size="10" fill="#ff4060">BLOCKED</text>
  </g>
  <line x1="690" y1="120" x2="790" y2="120" stroke="#ff0040" stroke-width="1.5"/>
  <text x="850" y="125" text-anchor="middle" font-family="Consolas, monospace" font-size="24" fill="#ff0040">&#x2718;</text>

  <!-- Divider -->
  <line x1="50" y1="170" x2="950" y2="170" stroke="#495670" stroke-width="0.5" stroke-dasharray="4,4"/>

  <!-- Container bypass path -->
  <text x="500" y="200" text-anchor="middle" font-family="Consolas, monospace" font-size="12" fill="#00ffcc">With VHD/ISO Container (BYPASSED)</text>

  <g transform="translate(100, 260)">
    <rect x="-60" y="-25" width="120" height="50" rx="6" fill="#1a1a2e" stroke="#00d4ff" stroke-width="1.5"/>
    <text x="0" y="5" text-anchor="middle" font-family="Consolas, monospace" font-size="11" fill="#00d4ff">payload.vhd</text>
  </g>
  <line x1="160" y1="260" x2="220" y2="260" stroke="#00d4ff" stroke-width="1.5" marker-end="url(#a2)"/>

  <g transform="translate(300, 260)">
    <rect x="-70" y="-25" width="140" height="50" rx="6" fill="#1a1a2e" stroke="#ffa500" stroke-width="1.5"/>
    <text x="0" y="-4" text-anchor="middle" font-family="Consolas, monospace" font-size="10" fill="#ffa500">MOTW on VHD</text>
    <text x="0" y="12" text-anchor="middle" font-family="Consolas, monospace" font-size="9" fill="#8892b0">(container only)</text>
  </g>
  <line x1="370" y1="260" x2="430" y2="260" stroke="#ffa500" stroke-width="1.5" marker-end="url(#a2)"/>

  <g transform="translate(510, 260)">
    <rect x="-70" y="-25" width="140" height="50" rx="6" fill="#1a1a2e" stroke="#00ffcc" stroke-width="1.5"/>
    <text x="0" y="-4" text-anchor="middle" font-family="Consolas, monospace" font-size="10" fill="#00ffcc">Double-click</text>
    <text x="0" y="12" text-anchor="middle" font-family="Consolas, monospace" font-size="9" fill="#8892b0">Auto-mount</text>
  </g>
  <line x1="580" y1="260" x2="640" y2="260" stroke="#00ffcc" stroke-width="1.5" marker-end="url(#a2)"/>

  <g transform="translate(720, 260)">
    <rect x="-70" y="-25" width="140" height="50" rx="6" fill="#1a1a2e" stroke="#00ffcc" stroke-width="2"/>
    <text x="0" y="-4" text-anchor="middle" font-family="Consolas, monospace" font-size="10" fill="#00ffcc">Inner payload.exe</text>
    <text x="0" y="12" text-anchor="middle" font-family="Consolas, monospace" font-size="10" fill="#00ffcc">NO MOTW</text>
  </g>
  <line x1="790" y1="260" x2="870" y2="260" stroke="#00ffcc" stroke-width="1.5"/>
  <text x="910" y="265" text-anchor="middle" font-family="Consolas, monospace" font-size="24" fill="#00ffcc">&#x2714;</text>
  <text x="910" y="285" text-anchor="middle" font-family="Consolas, monospace" font-size="9" fill="#00ffcc">EXECUTES</text>

  <!-- Caption -->
  <text x="500" y="330" text-anchor="middle" font-family="Consolas, monospace" font-size="10" fill="#495670">VHD/VHDX containers do not propagate MOTW to inner files | Active bypass as of 2025+</text>
</svg>